<svg width="40" height="40" viewBox="0 0 40 40" fill="none" xmlns="http://www.w3.org/2000/svg">
<path d="M25.5 15.875C25.5 17.6984 26.2243 19.447 27.5136 20.7364C28.803 22.0257 30.5516 22.75 32.375 22.75C34.1984 22.75 35.947 22.0257 37.2364 20.7364C38.5257 19.447 39.25 17.6984 39.25 15.875C39.2502 15.6617 39.2008 15.4513 39.1056 15.2604L33.6056 4.26038C33.4577 3.9641 33.2078 3.73115 32.9019 3.60434C32.596 3.47753 32.2546 3.46538 31.9405 3.57013L23.2354 6.47137C22.7532 5.85827 22.1086 5.39282 21.375 5.128V0.75H18.625V5.128C17.8362 5.40688 17.151 5.91942 16.6607 6.59737C16.1705 7.27532 15.8983 8.08653 15.8805 8.923L7.1905 11.8201C6.84476 11.9354 6.55891 12.1831 6.39575 12.509L0.89575 23.509C0.79992 23.7002 0.750014 23.9111 0.75 24.125C0.75 25.9484 1.47433 27.697 2.76364 28.9864C4.05295 30.2757 5.80164 31 7.625 31C9.44836 31 11.197 30.2757 12.4864 28.9864C13.7757 27.697 14.5 25.9484 14.5 24.125C14.5002 23.9117 14.4508 23.7013 14.3556 23.5104L9.56375 13.928L16.7646 11.5273C17.2468 12.1404 17.8914 12.6058 18.625 12.8706V36.5H6.25V39.25H33.75V36.5H21.375V12.872C22.1638 12.5931 22.849 12.0806 23.3393 11.4026C23.8295 10.7247 24.1017 9.91347 24.1195 9.077L29.6607 7.229L25.6458 15.259C25.5499 15.4502 25.5 15.6611 25.5 15.875ZM7.625 28.25C6.77513 28.2462 5.94717 27.98 5.25435 27.4877C4.56153 26.9955 4.03766 26.3013 3.75437 25.5H11.4956C11.2123 26.3013 10.6885 26.9955 9.99565 27.4877C9.30283 27.98 8.47487 28.2462 7.625 28.25ZM10.9002 22.75H4.34975L7.625 16.1995L10.9002 22.75ZM20 10.375C19.7281 10.375 19.4622 10.2944 19.2361 10.1433C19.01 9.99218 18.8337 9.77744 18.7297 9.52619C18.6256 9.27494 18.5984 8.99848 18.6514 8.73175C18.7045 8.46503 18.8354 8.22003 19.0277 8.02773C19.22 7.83543 19.465 7.70447 19.7318 7.65142C19.9985 7.59837 20.2749 7.6256 20.5262 7.72967C20.7774 7.83374 20.9922 8.00997 21.1433 8.23609C21.2944 8.46221 21.375 8.72805 21.375 9C21.375 9.36467 21.2301 9.71441 20.9723 9.97227C20.7144 10.2301 20.3647 10.375 20 10.375ZM32.375 20C31.5251 19.9962 30.6972 19.73 30.0044 19.2377C29.3115 18.7455 28.7877 18.0513 28.5044 17.25H36.2456C35.9623 18.0513 35.4385 18.7455 34.7456 19.2377C34.0528 19.73 33.2249 19.9962 32.375 20ZM32.375 7.9495L35.6502 14.5H29.0998L32.375 7.9495Z" fill="white"/>
</svg>
